<?xml version="1.0" ?><!DOCTYPE svg  PUBLIC '-//W3C//DTD SVG 1.1//EN'  'http://www.w3.org/Graphics/SVG/1.1/DTD/svg11.dtd'><svg enable-background="new 0 0 128 128" id="Слой_1" version="1.1" viewBox="0 0 128 128" xml:space="preserve" xmlns="http://www.w3.org/2000/svg" xmlns:xlink="http://www.w3.org/1999/xlink"><g><g><g><g><g><path d="M113.9,114.1L113.9,114.1c-2.5,2.5-6.6,2.5-9.2,0l-11.5-11.5c-2.5-2.5-2.5-6.7,0-9.2l0,0       c2.5-2.5,6.6-2.5,9.2,0l11.5,11.5C116.5,107.4,116.5,111.6,113.9,114.1z" fill="#C7D7E2"/></g></g></g><g><g><g><g><path d="M55.4,12c-23.9,0-43.2,19.4-43.2,43.3s19.3,43.3,43.2,43.3s43.2-19.4,43.2-43.3S79.2,12,55.4,12z         M55.4,87.8C37.5,87.8,23,73.3,23,55.3c0-17.9,14.5-32.5,32.4-32.5s32.4,14.6,32.4,32.5C87.8,73.3,73.3,87.8,55.4,87.8z" fill="#FFFFFF"/></g></g></g></g><g><g><g><g><path d="M55.4,87.8C37.5,87.8,23,73.3,23,55.3c0-17.9,14.5-32.5,32.4-32.5s32.4,14.6,32.4,32.5        C87.8,73.3,73.3,87.8,55.4,87.8z" fill="#C7D7E2"/></g></g></g></g></g><g><g><g><path d="M55.4,101.7c-25.5,0-46.2-20.8-46.2-46.3S29.9,9,55.4,9c25.5,0,46.2,20.8,46.2,46.3      S80.8,101.7,55.4,101.7z M55.4,15c-22.2,0-40.2,18.1-40.2,40.3s18,40.3,40.2,40.3c22.2,0,40.2-18.1,40.2-40.3S77.5,15,55.4,15z" fill="#454B54"/></g></g></g><g><g><g><path d="M93.3,96.4c-0.8,0-1.5-0.3-2.1-0.9l-7.4-7.4c-1.2-1.2-1.2-3.1,0-4.2c1.2-1.2,3.1-1.2,4.2,0l7.4,7.4      c1.2,1.2,1.2,3.1,0,4.2C94.8,96.1,94,96.4,93.3,96.4z" fill="#454B54"/></g></g></g><g><g><g><path d="M109.4,119c-2.5,0-4.9-1-6.7-2.8l-11.5-11.5c-3.7-3.7-3.7-9.7,0-13.4c1.8-1.8,4.2-2.8,6.7-2.8      c2.5,0,4.9,1,6.7,2.8l11.5,11.5c3.7,3.7,3.7,9.7,0,13.4C114.3,118,111.9,119,109.4,119z M97.9,94.5c-0.9,0-1.8,0.4-2.5,1      c-1.4,1.4-1.4,3.6,0,5l11.5,11.5c1.3,1.3,3.6,1.3,4.9,0c1.4-1.4,1.4-3.6,0-5l-11.5-11.5C99.7,94.8,98.8,94.5,97.9,94.5z" fill="#454B54"/></g></g></g><g><g><g><path d="M34,50.7c-0.3,0-0.7-0.1-1-0.2c-1.6-0.6-2.4-2.3-1.8-3.8c3.6-10.2,13.4-17.1,24.2-17.1c1.7,0,3,1.3,3,3      s-1.3,3-3,3c-8.3,0-15.8,5.3-18.5,13.1C36.4,49.9,35.2,50.7,34,50.7z" fill="#FFFFFF"/></g></g></g><g><g><g><path d="M32.7,58.3c-1.7,0-3-1.3-3-3l0-0.5c0-1.7,1.4-3,3.1-2.9c1.7,0,3,1.4,2.9,3.1l0,0.4      C35.7,57,34.3,58.3,32.7,58.3z" fill="#FFFFFF"/></g></g></g></g></svg>